<?xml version="1.0" ?><svg viewBox="0 0 512 512" xmlns="http://www.w3.org/2000/svg"><g id="Dental_Checkup"><path d="M436.4618,214.9362a73.9527,73.9527,0,0,0-99.81-69.3,78.7561,78.7561,0,0,0-27.4375-28.0792c-17.69-10.47-40.93-11.3081-60.6494-2.186a47.3,47.3,0,0,1-38.4531,0c-19.7188-9.1211-42.958-8.2833-60.6494,2.186-28.4053,16.812-44.5274,53.53-37.5137,85.3535l25.053,118.687L75.5382,336.9616v65.9653H383.139V336.9616l-61.4633-15.3642,8.4758-40.154a73.8112,73.8112,0,0,0,63.7939.4219l28.7332,44.1705,10.8965-7.0889L405.1761,275.29A73.9112,73.9112,0,0,0,436.4618,214.9362ZM300.4462,359.2238c-.9024,4.2973-4.8535,6.0088-6.51,6.5449a11.978,11.978,0,0,1-11.6953-2.2583c-11.957-10.8662-17.5908-17.4448-17.5908-30.7822v-.6743a35.3116,35.3116,0,0,0-70.6231,0v.6743c0,13.3374-5.6338,19.916-17.5908,30.7822a11.9814,11.9814,0,0,1-11.6953,2.2583c-1.6563-.5361-5.6074-2.2476-6.5108-6.5508L124.6561,200.1691c-5.87-26.64,7.6407-57.3457,31.4278-71.4248,14.0644-8.3223,32.6748-8.9263,48.5713-1.5747a60.2836,60.2836,0,0,0,49.3671,0c15.8965-7.3526,34.5079-6.749,48.5713,1.5747a65.7551,65.7551,0,0,1,22.3721,22.4886,73.8974,73.8974,0,0,0-6.5864,123.0377Zm1.08-144.2876A60.9678,60.9678,0,1,1,362.494,275.904,61.0367,61.0367,0,0,1,301.5262,214.9362Z"/><path d="M400.8885,214.9362a38.4387,38.4387,0,0,1-38.3955,38.3945v12a50.4521,50.4521,0,0,0,50.3955-50.3945Z"/></g></svg>