<?xml version="1.0" ?><svg xmlns="http://www.w3.org/2000/svg" id="Layer_5" data-name="Layer 5" width="512" height="512" viewBox="0 0 512 512"><defs><style>
      .cls-1 {
        stroke-width: 0px;
      }
    </style></defs><path class="cls-1" d="m167.461,210.077c-18.916-9.286-25.802-16.173-35.088-35.088-1.008-2.054-3.097-3.356-5.386-3.356s-4.377,1.302-5.386,3.356c-9.286,18.916-16.173,25.802-35.089,35.088-4.411,2.042-4.429,8.728,0,10.771,18.916,9.287,25.802,16.173,35.089,35.089,1.008,2.054,3.097,3.356,5.386,3.356s4.377-1.302,5.386-3.356c9.287-18.916,16.173-25.803,35.088-35.089,2.054-1.008,3.356-3.097,3.356-5.386s-1.302-4.377-3.356-5.386Zm-40.474,30.538c-6.719-11.268-13.884-18.434-25.152-25.152,11.268-6.719,18.434-13.884,25.152-25.152,6.719,11.268,13.884,18.433,25.152,25.152-11.268,6.719-18.433,13.884-25.152,25.152Z"/><path class="cls-1" d="m446.68,281.241c-14.702,0-26.663,11.961-26.663,26.663v93.639c0,14.702,11.961,26.664,26.663,26.664s26.664-11.961,26.664-26.664v-93.639c0-14.702-11.961-26.663-26.664-26.663Zm0,12c8.085,0,14.664,6.578,14.664,14.663-.805,19.452-28.524,19.447-29.327,0,0-8.085,6.578-14.663,14.663-14.663Zm0,122.965c-8.085,0-14.663-6.578-14.663-14.664v-71.385c8.369,5.823,20.958,5.822,29.327,0v71.385c0,8.085-6.578,14.664-14.664,14.664Z"/><path class="cls-1" d="m447.361,344.735h-1.362c-3.313,0-6,2.687-6,6s2.687,6,6,6h1.362c7.942-.275,7.941-11.726,0-12Z"/><path class="cls-1" d="m447.361,366.118h-1.362c-3.313,0-6,2.687-6,6s2.687,6,6,6h1.362c7.942-.275,7.941-11.726,0-12Z"/><path class="cls-1" d="m447.361,387.5h-1.362c-3.313,0-6,2.687-6,6s2.687,6,6,6h1.362c7.942-.275,7.941-11.726,0-12Z"/><path class="cls-1" d="m463.641,167.198c0,3.313,2.686,6,6,6,7.943-.275,7.94-11.727,0-12-3.314,0-6,2.686-6,6Z"/><path class="cls-1" d="m496.013,263.152c-5.314-7.636-8.613-16.559-9.546-25.758-.486-5.142-.204-10.349-.677-15.481-.926-11.541-3.196-22.165-5.453-32.479-.705-3.238-3.905-5.29-7.139-4.586-3.238.705-5.291,3.901-4.586,7.139,1.786,8.206,3.511,16.127,4.554,24.386h-52.95c1.673-13.133,5.268-26.901,7.882-40.154,4.468-21.32,7.222-47.169,7.593-70.392,7.208,1.565,14.77,1.566,21.978,0,.288,13.522,1.111,26.122,2.499,38.308.375,3.292,3.345,5.659,6.641,5.282,3.292-.375,5.657-3.348,5.282-6.641-1.48-12.991-2.29-26.506-2.485-41.17,31.21-15.302,38.335-57.745,13.688-82.283-19.394-20.3-53.837-20.303-73.229.004-24.644,24.543-17.518,66.985,13.698,82.283-.062,4.633-.189,9.051-.367,13.292-20.9-14.06-46.819-20.796-73.466-18.568-53.374-27.069-134.791-27.069-188.166,0-20.782-1.788-42.187,2.133-60.566,11.145-10.899-9.259-18.461-20.485-27.116-38.116-2.051-4.414-8.723-4.428-10.772,0-14.635,29.812-26.139,41.317-55.952,55.952-2.054,1.009-3.356,3.098-3.356,5.386s1.302,4.377,3.356,5.386c19.826,9.733,31.553,18.088,41.491,31.357-15.628,62.152-7.417,113.725,33.293,156.974,9.967,11.052,13.202,33.059,16.627,56.357,3.75,25.508,8,54.419,21.854,78.312,16.261,28.044,42.608,43.967,80.547,48.679,8.048.998,15.977-1.217,22.335-6.243,6.348-5.017,10.332-12.208,11.216-20.249l12.738-115.79c.335-3.046,2.899-5.344,5.964-5.344h4.848c3.065,0,5.629,2.297,5.964,5.344l12.738,115.789c.884,8.041,4.868,15.232,11.216,20.249,6.351,5.039,14.384,7.245,22.334,6.243,33.648-4.178,58.324-17.322,74.837-39.966v10.198c0,16.542,13.458,30,30,30h62.64c16.542,0,30-13.458,30-30v-176.613c0-13.736-4.145-26.957-11.987-38.234Zm-67.299-211.892c1.594-1.678,3.849-1.952,6.047-1.602,1.602.031,3.184-.624,4.326-1.75,1.125-1.141,1.779-2.716,1.75-4.32-.349-2.197-.079-4.46,1.603-6.051,3.656-3.774,10.328-1.016,10.242,4.244-.255,1.767-.242,3.78.905,5.286,1.086,1.633,3.03,2.611,4.982,2.594,2.207-.341,4.48-.09,6.08,1.603,3.773,3.655,1.016,10.328-4.244,10.242-2.158-.363-4.525-.084-6.124,1.588-1.344,1.342-1.979,3.31-1.691,5.188.33,1.934-.308,3.816-1.669,5.19-3.67,3.77-10.306,1.026-10.242-4.245-.003-.589.201-1.402.15-2.045-.028-2.325-1.558-4.537-3.717-5.395-1.282-.603-2.823-.43-4.157-.285-1.603,0-3.109-.625-4.243-1.758-2.326-2.234-2.328-6.252,0-8.485Zm2.904,27.794c6.836,10.737,23.135,10.94,30.138.009l8.278,8.278c-13.41,10.156-33.295,10.157-46.705.002l8.289-8.289Zm46.901-.198l-8.275-8.275c10.829-6.912,10.823-23.246-.005-30.152l8.278-8.278c10.129,13.112,10.129,33.594.002,46.705Zm-8.488-55.19l-8.275,8.275c-7.005-10.932-23.308-10.716-30.136.015l-8.291-8.291c13.112-10.128,33.592-10.126,46.702,0Zm-55.188,8.485l8.276,8.276c-10.832,6.91-10.828,23.246.001,30.154l-8.278,8.278c-10.13-13.113-10.128-33.596,0-46.707Zm81.157,426.428h-98.64v-157.193c0-11.275,3.402-22.127,9.84-31.384,2.015-2.925,3.826-6.008,5.366-9.195h68.228c1.534,3.179,3.321,6.255,5.366,9.195,6.438,9.257,9.84,20.109,9.84,31.384v157.193Zm-21.872-229.869c-.028,6.758.457,13.556,2.243,20.097h-59.379c1.796-6.686,2.284-13.51,2.29-20.434h54.834c.003.113.009.224.012.336Zm-145.792-128.497c-10.985,3.068-21.39,7.73-30.785,13.849-22.9-10.004-60.525-9.998-83.408,0-9.395-6.119-19.801-10.78-30.786-13.849,43.544-16.252,101.436-16.252,144.979,0ZM23.042,130.702c21.777-11.991,33.662-23.875,45.652-45.652,11.728,21.704,24.988,34.438,45.652,45.653-21.776,11.99-33.661,23.875-45.652,45.652-11.99-21.777-23.875-33.662-45.652-45.652Zm286.001,365.158c-9.681,1.407-19.276-6.147-20.143-15.896,0,0-12.738-115.789-12.738-115.789-1.006-9.14-8.698-16.032-17.892-16.032h-4.848c-9.195,0-16.887,6.893-17.892,16.032l-12.738,115.789c-.531,4.823-2.92,9.137-6.729,12.147-3.818,3.018-8.583,4.348-13.415,3.749-76.225-9.466-84.61-66.504-92.008-116.828-3.857-26.239-7.188-48.899-19.589-62.648-35.327-39.002-44.407-77.129-33.076-134.613,1.711,3.091,3.625,6.788,5.334,10.27,2.055,4.409,8.719,4.432,10.772,0,14.635-29.812,26.139-41.316,55.952-55.952,2.054-1.009,3.356-3.098,3.356-5.386s-1.302-4.377-3.356-5.386c-1.765-.866-3.48-1.733-5.209-2.625-4.242-2.207-8.432-4.521-12.462-7.081,27.509-11.534,62.14-10.038,88.49,4.51-17.679,9.061-30.853,18.554-53.837,18.512-7.868.239-8.006,11.707,0,12,48.131-.899,58.2-32.714,108.831-32.171,50.627-.544,60.706,31.274,108.831,32.172,7.874-.246,8.004-11.706,0-12.001-22.982.042-36.158-9.452-53.837-18.512,34.298-19.147,82.011-15.235,111.715,9.008-1.939,24.047-4.751,38.104-8.621,56.127-2.249,10.398-4.631,20.731-5.842,31.299-.675,5.526-.887,11.084-.94,16.67-.436,10.001-2.913,18.801-8.024,27.182-8.64,12.033-13.907,26.058-13.768,40.981,0,0,0,142.57,0,142.57-13.898,30.663-38.184,47.167-76.316,51.903Zm186.957-17.86c0,9.925-8.075,18-18,18h-62.64c-9.925,0-18-8.075-18-18v-7.42h98.64v7.42Z"/></svg>