<?xml version="1.0" ?><svg xmlns="http://www.w3.org/2000/svg" id="Layer_5" data-name="Layer 5" width="512" height="512" viewBox="0 0 512 512"><defs><style>
      .cls-1 {
        stroke-width: 0px;
      }
    </style></defs><path class="cls-1" d="m7.291,159.033c18.916,9.287,25.803,16.173,35.088,35.088,1.009,2.054,3.098,3.356,5.386,3.356s4.377-1.302,5.386-3.356c9.286-18.916,16.172-25.802,35.088-35.088,4.411-2.042,4.429-8.728,0-10.771-18.915-9.286-25.802-16.173-35.088-35.089-1.009-2.054-3.098-3.356-5.386-3.356s-4.377,1.302-5.386,3.356c-9.286,18.916-16.172,25.802-35.088,35.089-2.054,1.008-3.356,3.097-3.356,5.386s1.302,4.377,3.356,5.386Zm40.475-30.538c6.719,11.268,13.884,18.434,25.152,25.152-11.268,6.719-18.433,13.884-25.152,25.152-6.719-11.268-13.884-18.433-25.152-25.152,11.268-6.719,18.434-13.884,25.152-25.152Z"/><path class="cls-1" d="m191.619,193.593c18.916,9.286,25.802,16.172,35.088,35.088,1.008,2.054,3.097,3.356,5.386,3.356s4.377-1.302,5.386-3.356c9.286-18.916,16.173-25.802,35.089-35.088,4.411-2.043,4.429-8.728,0-10.772-18.916-9.286-25.802-16.172-35.089-35.088-1.008-2.054-3.097-3.356-5.386-3.356s-4.377,1.302-5.386,3.356c-9.287,18.916-16.173,25.803-35.088,35.088-2.054,1.009-3.356,3.098-3.356,5.386s1.302,4.377,3.356,5.386Zm40.474-30.539c6.719,11.268,13.884,18.434,25.152,25.152-11.268,6.719-18.434,13.884-25.152,25.152-6.719-11.268-13.884-18.433-25.152-25.152,11.268-6.719,18.433-13.884,25.152-25.152Z"/><path class="cls-1" d="m478,377.568h-8.944c.976-2.452,2.131-4.542,3.552-6.118,23.212-24.798,28.146-53.497,19.692-89.18,2.99-3.122,6.666-5.45,12.278-8.206,2.054-1.009,3.355-3.098,3.355-5.386s-1.302-4.378-3.356-5.386c-10.729-5.267-14.406-8.944-19.673-19.673-2.041-4.417-8.73-4.423-10.772,0-1.393,2.837-2.676,5.171-4.006,7.182-20.684-15.201-52.078-16.157-73.926-2.23-14.734-5.344-31.545-5.344-46.279,0-32.421-20.755-80.46-7.344-93.988,27.252-13.539-34.61-61.562-48-93.987-27.253-14.735-5.343-31.545-5.344-46.279,0-36.891-23.527-91.669-2.98-97.327,39.792-6.802,34.999-.735,59.079,20.92,83.087,1.421,1.576,2.576,3.666,3.552,6.118h-8.813c-16.542,0-30,13.458-30,30v70.432c0,16.542,13.458,30,30,30h444c16.542,0,30-13.458,30-30v-70.432c0-16.542-13.458-30-30-30Zm-353.22,14.169l-7.157,65.054c-.028.25-.067.498-.119.741-.663,3.444-4.045,6.101-7.551,5.921-13.05-1.34-26.389-6.27-34.855-16.689-10.654-13.13-12.803-30.587-15.272-46.775-2.939-13.509,7.368-26.633,21.283-26.558,3.313,0,6-2.687,6-6v-7.37c0-11.835,9.628-21.464,21.464-21.464s21.464,9.629,21.464,21.464c0,3.313,2.687,6,6,6h51.822c9.653,0,17.507,7.854,17.507,17.507,0,3.313,2.686,6,6,6,4.062-.103,7.482,3.831,6.801,7.844-.127.855-.253,1.714-.38,2.577-.541,3.68-1.086,7.375-1.708,11.033-3.501,20.341-9.62,36.375-24.881,45.267-5.702,3.316-12.081,5.298-18.557,6.456-3.287.565-7.046,1.507-9.852-.905-1.584-1.252-2.577-3.045-2.798-5.05l-7.157-65.054c-.711-6.47-6.157-11.349-12.666-11.349h-2.724c-6.509,0-11.954,4.879-12.666,11.349Zm234.254,0l-7.157,65.054c-.221,2.005-1.214,3.798-2.797,5.05-2.528,2.181-5.954,1.626-8.957,1.065-2.492-.422-4.961-.954-7.381-1.619-18.35-4.696-29.53-18.716-34.2-37.524-1.133-4.221-1.987-8.332-2.748-12.719-3.36-17.751,11.289-35.09,29.352-34.781,3.313,0,6-2.687,6-6v-7.062c0-11.402,9.277-20.68,20.679-20.68h12.555c11.402,0,20.679,9.277,20.679,20.68,0,3.313,2.686,6,6,6h44.729c10.937-.186,19.826,10.34,17.727,21.098-1.969,11.137-3.037,22.726-5.893,33.624-5.919,21.351-16.109,34.959-45.044,39.483-3.994.569-7.988-2.593-8.333-6.614,0,0-7.157-65.054-7.157-65.054-.711-6.47-6.157-11.349-12.666-11.349h-2.724c-6.509,0-11.954,4.879-12.666,11.349Zm130.844-123.059c-4.218,2.924-7.436,6.142-10.359,10.359-2.827-4.087-6.272-7.555-10.359-10.359,4.218-2.923,7.436-6.141,10.359-10.358,2.923,4.218,6.141,7.436,10.359,10.358Zm-225.472,21.808c3.583-31.094,42.298-48.549,71.91-35.459-7.613,4.104-14.179,7.652-24.4,7.652-3.313,0-6,2.687-6,6s2.687,6,6,6c13.231,0,21.784-4.61,30.055-9.068,3.152-1.699,6.243-3.362,9.6-4.788,6.778-2.94,14.116-4.244,21.49-4.218,7.374-.026,14.713,1.278,21.491,4.219,3.357,1.426,6.447,3.089,9.599,4.788,8.271,4.458,16.823,9.068,30.055,9.068,3.313,0,6-2.687,6-6s-2.687-6-6-6c-10.221,0-16.787-3.548-24.4-7.652,16.358-7.087,37.091-5.37,51.651,4.369-1.88,1.238-4.343,2.592-6.998,3.897-4.419,2.047-4.424,8.727,0,10.772,8.047,3.95,12.127,7.006,15.886,12.813,1.391,2.152,2.61,4.465,3.787,6.859,1.472,3.163,5.682,4.325,8.589,2.43,4.435,28.166-1.118,47.392-19.025,67.245-1.53,1.696-2.822,3.627-3.943,5.734-5.65-7.523-14.557-11.961-23.966-11.947,0,0-39.282,0-39.282,0-2.825-15.164-16.157-26.68-32.127-26.68h-12.555c-18.585-.047-33.464,15.648-32.679,34.171-11.244,1.594-21.644,7.917-28.203,17.368-1.75-7.404-4.241-13.906-8.517-18.647-19.086-21.16-24.138-41.607-18.021-72.927Zm14.898,94.49c-13.204-9.789-33.536-9.788-46.74,0,1.338-5.738,3.093-10.537,5.789-13.525,7.888-8.746,13.699-17.503,17.581-26.792,3.883,9.289,9.693,18.047,17.58,26.792,2.696,2.989,4.451,7.788,5.789,13.526ZM30.152,290.486c3.582-31.092,42.296-48.55,71.91-35.459-7.613,4.103-14.179,7.652-24.399,7.652-3.313,0-6,2.687-6,6s2.687,6,6,6c13.231,0,21.784-4.61,30.055-9.068,3.153-1.699,6.244-3.362,9.601-4.789,6.778-2.94,14.115-4.244,21.489-4.218,7.373-.026,14.71,1.278,21.487,4.217,3.358,1.427,6.45,3.09,9.603,4.789,8.271,4.458,16.823,9.068,30.055,9.068,3.313,0,6-2.687,6-6s-2.687-6-6-6c-10.221,0-16.787-3.548-24.4-7.652,29.46-13.041,68.074,4.233,71.851,35.097,6.19,31.355,1.226,52.091-17.96,73.29-3.957,4.387-6.38,10.289-8.108,17.011-1.382-.86-2.865-1.546-4.421-2.024-2.451-13.814-14.546-24.339-29.054-24.339h-46.361c-8.727-40.724-67.221-34.07-66.389,7.906-8.093,1.447-15.542,5.904-20.648,12.499-1.549-4.255-3.551-8.018-6.29-11.054-19.086-21.16-24.138-41.606-18.02-72.927Zm465.848,187.514c0,9.925-8.075,18-18,18H34c-9.925,0-18-8.075-18-18v-70.432c0-9.925,8.075-18,18-18h12.008c4.909,26.986,4.993,59.8,34.876,77.411,8.81,4.927,18.831,7.632,28.863,8.48,9.807.441,18.923-7.557,19.803-17.356,0,0,7.157-65.054,7.157-65.054.042-.377.359-.661.738-.661h2.724c.379,0,.696.284.738.661l7.157,65.054c.276,2.566,1.1,5.058,2.314,7.323,3.037,5.582,9.092,9.519,15.466,9.981,3.107.238,6.201-.394,9.252-.904,8.167-1.474,16.194-4.15,23.287-8.501,5.683-3.473,10.692-8.027,14.679-13.354,6.37-8.473,10.041-18.275,12.521-28.339.906-3.676,1.652-7.387,2.289-11.075,2.369-13.713,14.171-23.666,28.063-23.666s25.646,9.915,28.047,23.586c.597,3.478,1.3,6.988,2.126,10.439,2.503,10.327,6.178,20.362,12.657,28.996,3.802,5.088,8.527,9.482,13.894,12.892,7.637,4.884,16.391,7.737,25.31,9.233,2.639.42,5.37.919,8.068.692,6.369-.464,12.422-4.401,15.455-9.98,1.241-2.234,2.034-4.756,2.314-7.323,0,0,7.157-65.054,7.157-65.054.042-.377.359-.661.738-.661h2.724c.379,0,.696.284.738.661l7.157,65.054c.072.653.175,1.297.309,1.931,1.83,9.602,11.667,16.683,21.378,15.287,34.522-3.977,52.016-25.415,57.319-57.795,1.917-9.627,2.805-18.605,4.537-27.958h12.139c9.925,0,18,8.075,18,18v70.432Z"/><path class="cls-1" d="m451.203,150.376c0-3.313-2.686-6-6-6-7.943.275-7.94,11.727,0,12,3.314,0,6-2.686,6-6Z"/><path class="cls-1" d="m502.421,4.516c-7.097-.672-59.299-2.639-151.693,8.382-90.711,11.672-147.696,43.131-150.14,44.499-1.895,1.061-3.067,3.063-3.067,5.234v12.28h-52.851c-1.591,0-3.117.632-4.243,1.757l-29.571,29.571c-2.343,2.343-2.343,6.142,0,8.485,2.343,2.343,6.143,2.343,8.485,0l27.813-27.813h50.366v12.28c0,2.171,1.173,4.173,3.067,5.234,1.685,1.177,61.206,33.39,150.939,44.6,14.31,1.772,28.69,3.208,43.042,4.501,8.943.793,17.716,1.486,26.249,2.063,3.297.224,6.167-2.275,6.391-5.582.224-3.306-2.276-6.167-5.582-6.391-6.741-.456-13.636-.986-20.644-1.578V19.789c50.886-4.288,82.856-3.947,95.017-3.55v129.351c-5.261.176-14.213.346-26.734.131-3.301-.061-6.049,2.582-6.102,5.896-.057,3.313,2.583,6.045,5.896,6.102,4.327.074,8.229.104,11.71.104,14.097,0,21.281-.49,21.649-.516,3.143-.221,5.58-2.834,5.58-5.985V10.501c0-3.15-2.437-5.764-5.579-5.985Zm-292.901,61.743c11.335-5.762,53.356-25.601,115.119-37.106v103.519c-61.768-11.506-103.79-31.347-115.119-37.106v-29.307Zm179.463,74.71c-17.482-1.691-34.992-3.397-52.344-6.213V27.067c17.349-2.813,34.863-4.524,52.344-6.212v120.113Z"/></svg>