<?xml version="1.0" ?><svg xmlns="http://www.w3.org/2000/svg" id="Layer_5" data-name="Layer 5" width="512" height="512" viewBox="0 0 512 512"><defs><style>
      .cls-1 {
        stroke-width: 0px;
      }
    </style></defs><path class="cls-1" d="m478,377.568h-8.879c.976-2.452,2.131-4.542,3.552-6.118,21.655-24.008,27.723-48.088,20.921-83.088-5.657-42.773-60.446-63.321-97.327-39.792-14.736-5.344-31.543-5.343-46.279,0-36.889-23.524-91.667-2.982-97.327,39.793-6.8,34.995-.733,59.079,20.921,83.087,1.421,1.576,2.576,3.666,3.552,6.118h-50.344c-2.788,0-5.209,1.92-5.843,4.636-1.282,5.492-2.161,11.465-3.091,17.788-4.217,28.68-8.578,58.337-49.418,63.409-4.026.583-8.021-2.553-8.381-6.609,0,0-7.156-65.054-7.156-65.054-.712-6.47-6.157-11.349-12.666-11.349h-2.724c-6.509,0-11.953,4.879-12.665,11.349l-7.157,65.055c-.221,2.004-1.214,3.797-2.797,5.048-1.589,1.255-3.569,1.809-5.583,1.56-49.291-6.217-45.169-47.372-52.509-81.197-.634-2.715-3.055-4.636-5.843-4.636h-16.957c-16.542,0-30,13.458-30,30v70.432c0,16.542,13.458,30,30,30h444c16.542,0,30-13.458,30-30v-70.432c0-16.542-13.458-30-30-30Zm-213.528-87.082c3.584-31.094,42.298-48.55,71.911-35.46-7.613,4.103-14.18,7.652-24.4,7.652-3.313,0-6,2.687-6,6s2.687,6,6,6c13.231,0,21.784-4.61,30.055-9.068,3.153-1.7,6.245-3.363,9.603-4.79,6.777-2.939,14.114-4.243,21.487-4.217,7.373-.026,14.711,1.278,21.488,4.218,3.358,1.427,6.449,3.09,9.602,4.789,8.271,4.458,16.823,9.068,30.055,9.068,3.313,0,6-2.687,6-6s-2.687-6-6-6c-10.221,0-16.787-3.549-24.4-7.653,29.44-13.027,68.079,4.218,71.851,35.098,6.189,31.357,1.228,52.089-17.96,73.289-6.165,6.669-8.741,18.163-10.296,27.729-4.876,31.801-6.685,68.183-52.276,72.297-2.374-.176-4.655-1.566-5.856-3.621-.563-.912-.903-1.958-1.023-3.026,0,0-7.157-65.054-7.157-65.054-.712-6.47-6.156-11.349-12.665-11.349h-2.724c-6.509,0-11.954,4.879-12.666,11.349l-7.156,65.054c-.221,2.005-1.214,3.798-2.798,5.049-1.589,1.255-3.571,1.809-5.583,1.56-38.109-3.821-45.848-33.515-49.415-63.412-.905-6.075-1.745-11.985-3.135-17.913-1.75-7.411-4.242-13.92-8.521-18.663-19.085-21.161-24.138-41.607-18.02-72.926Zm231.528,187.513c0,9.925-8.075,18-18,18H34c-9.925,0-18-8.075-18-18v-70.432c0-9.925,8.075-18,18-18h12.078c6.188,34.197,5.501,77.657,61.752,85.741,5.224.65,10.374-.791,14.503-4.055,4.123-3.259,6.709-7.93,7.283-13.151l7.157-65.054c.042-.377.358-.661.737-.661h2.724c.379,0,.696.284.738.661l7.156,65.054c.574,5.222,3.162,9.893,7.285,13.151,4.128,3.263,9.276,4.704,14.502,4.054,56.269-8.096,55.536-51.529,61.752-85.741h48.66c5.734,31.485,5.285,71.148,50.848,83.71,8.696,2.042,17.629,4.28,25.41-2.023,4.123-3.258,6.711-7.929,7.285-13.151l7.156-65.054c.042-.377.359-.661.738-.661h2.724c.379,0,.695.284.737.661l7.157,65.054c.824,8.278,7.423,15.501,15.653,16.992,2.775.603,5.664.347,8.44-.101,54.018-9.097,53.313-51.763,59.449-85.426h12.073c9.925,0,18,8.075,18,18v70.432Z"/><path class="cls-1" d="m256.287,114.563c-5.609,0-10.883,2.185-14.849,6.151h0c-8.145,7.818-8.147,21.882,0,29.699,13.195,13.168,35.831,3.789,35.849-14.85.233-11.287-9.712-21.234-21-21Zm6.363,27.364c-8.761,8.12-20.843-3.976-12.728-12.728h0c8.761-8.121,20.845,3.977,12.727,12.728Z"/><path class="cls-1" d="m437.121,90.097c0-3.314-2.686-6-6-6-7.943.274-7.941,11.727,0,12,3.314,0,6-2.686,6-6Z"/><path class="cls-1" d="m502,4h-4.852c-1.187,0-2.347.352-3.333,1.011l-163.998,109.553h-32.592c-4.222-8.362-11.614-15.741-19.939-19.922v-32.608l32.532-48.701c2.684-3.827-.302-9.446-4.989-9.333,0,0-36.078,0-36.078,0-2.004,0-3.876,1-4.989,2.667l-24.938,37.333c-2.314,3.464-3.537,7.498-3.537,11.665v38.977c-2.318,1.188-4.554,2.587-6.683,4.194h-27.362c-28.278,0-51.864,21.276-55.49,48.658-10.099-.926-20.501.104-30.018,3.65-10.239-6.441-23.004-9.932-35.297-9.892-31.544,0-58.175,21.346-62.031,49.683-6.801,35-.733,59.08,20.922,83.088,5.066,5.618,6.828,17.599,8.692,30.284,3.609,28.796,11.854,69.854,62.259,73.727,4.366,0,8.574-1.455,12.054-4.207,4.123-3.259,6.71-7.93,7.283-13.151l7.157-65.054c.042-.376.358-.661.737-.661h2.724c.379,0,.696.284.738.661l7.156,65.054c.934,10.537,11.316,18.738,21.787,17.205,49.905-6.197,55.63-45.139,59.809-73.574,1.865-12.685,3.626-24.667,8.693-30.285,9.421-10.445,15.622-20.504,19.353-31.418,20.629-8.265,35.244-28.449,35.244-51.996v-27.35c1.604-2.118,3.008-4.358,4.21-6.694,0,0,38.962,0,38.963,0,4.166,0,8.199-1.223,11.663-3.537l66.685-44.546c6.43-4.606.123-14.173-6.666-9.978,0,0-66.684,44.547-66.684,44.547-1.484.991-3.212,1.515-4.997,1.515h-34.774c1.194-5.949,1.195-12.052,0-18h30.222c1.187,0,2.347-.352,3.333-1.011L496,17.983v21.646l-48.216,32.208c-6.438,4.617-.11,14.169,6.666,9.978,0,0,50.883-33.99,50.883-33.99,1.666-1.113,2.667-2.985,2.667-4.989V10c0-3.313-2.687-6-6-6Zm-214.211,118.735c13.238,34.663-28.697,62.491-55.523,36.89-14.103-13.817-13.05-37.714,2.268-50.184,17.382-14.724,44.815-7.847,53.255,13.293Zm-40.502-67.07c0-1.787.524-3.516,1.516-5l23.156-34.665h21.647l-27.309,40.881c-.659.987-1.011,2.146-1.011,3.333v30.223c-5.949-1.194-12.053-1.194-18,0v-34.772Zm-46.045,55.171h16.232c-6,9.385-8.431,20.719-6.671,31.759-16.413-3.312-34.68-.481-48.833,8.534-1.441-.52-2.925-1.017-4.415-1.445,2.571-21.811,21.257-38.848,43.687-38.848Zm42.052,135.42c-14.835,27.482-19.962,15.448-25.44,56.306-4.217,28.681-8.577,58.339-49.416,63.411-4.028.581-8.019-2.553-8.381-6.61,0,0-7.156-65.054-7.156-65.054-.712-6.469-6.157-11.348-12.666-11.348h-2.724c-6.509,0-11.953,4.879-12.665,11.348l-7.157,65.055c-.361,4.049-4.353,7.198-8.38,6.609-40.84-5.072-45.2-34.73-49.416-63.412-2.137-14.533-4.155-28.26-11.655-36.576-19.185-21.198-24.15-41.934-17.961-73.289,3.776-30.85,42.391-48.144,71.851-35.098-7.613,4.103-14.179,7.652-24.399,7.652-3.313,0-6,2.687-6,6s2.687,6,6,6c13.231,0,21.783-4.61,30.055-9.068,3.151-1.699,6.241-3.36,9.596-4.787,6.779-2.941,14.118-4.246,21.494-4.22,7.326-.058,14.816,1.378,21.499,4.223,3.353,1.426,6.441,3.086,9.59,4.784,8.271,4.458,16.823,9.068,30.055,9.068,3.313,0,6-2.687,6-6s-2.687-6-6-6c-10.221,0-16.787-3.549-24.401-7.652,12.466-5.318,26.597-5.649,39.635-1.226,3.667,7.235,9.315,13.468,16.129,17.868.625,18.679-.706,33.796-8.476,50.367-4.844,10.04,2.978,22.174,14.11,22.001,2.106.008,4.191-.147,6.278-.352Zm7.411-13.839c-4.411,1.45-9.046,2.178-13.689,2.191-2.685-.067-4.262-2.628-3.227-4.946,1.983-4.269,3.666-8.644,5.045-13.107,3.757-11.876,4.977-24.349,4.592-36.839,12.636,3.654,26.326,1.803,37.59-5.373v16.265c0,19.483-12.733,36.039-30.311,41.809Z"/></svg>